<svg width="20.001709" height="20.001709" viewBox="0 0 20.0017 20.0017" fill="none" xmlns="http://www.w3.org/2000/svg" xmlns:xlink="http://www.w3.org/1999/xlink">
	<desc>
			Created with Pixso.
	</desc>
	<defs>
		<clipPath id="clip2_268">
			<rect id="Feather Icons/fi:link" rx="-0.416694" width="19.168324" height="19.168324" transform="translate(0.416694 0.416694)" fill="white" fill-opacity="0"/>
		</clipPath>
	</defs>
	<rect id="Feather Icons/fi:link" rx="-0.416694" width="19.168324" height="19.168324" transform="translate(0.416694 0.416694)" fill="#FFFFFF" fill-opacity="0"/>
	<g clip-path="url(#clip2_268)">
		<path id="Vector" d="M8.33 10.83C8.69 11.31 9.14 11.7 9.67 11.99C10.19 12.28 10.77 12.45 11.37 12.49C11.96 12.53 12.56 12.45 13.12 12.24C13.68 12.03 14.19 11.7 14.61 11.28L17.11 8.78C17.87 7.99 18.29 6.94 18.28 5.85C18.27 4.76 17.83 3.71 17.06 2.94C16.29 2.17 15.24 1.73 14.15 1.72C13.06 1.71 12.01 2.13 11.22 2.89L9.79 4.31" stroke="#3D3D3D" stroke-opacity="1.000000" stroke-width="1.666776" stroke-linejoin="round" stroke-linecap="round"/>
		<path id="Vector" d="M11.66 9.16C11.3 8.68 10.85 8.29 10.32 8C9.8 7.72 9.22 7.54 8.62 7.5C8.03 7.46 7.43 7.55 6.87 7.75C6.31 7.96 5.8 8.29 5.38 8.71L2.88 11.21C2.12 12 1.7 13.05 1.71 14.14C1.72 15.24 2.16 16.28 2.93 17.05C3.7 17.83 4.75 18.27 5.84 18.27C6.93 18.28 7.98 17.86 8.77 17.1L10.2 15.68" stroke="#3D3D3D" stroke-opacity="1.000000" stroke-width="1.666776" stroke-linejoin="round" stroke-linecap="round"/>
	</g>
</svg>
