<svg width="20.001709" height="20.001709" viewBox="0 0 20.0017 20.0017" fill="none" xmlns="http://www.w3.org/2000/svg" xmlns:xlink="http://www.w3.org/1999/xlink">
	<desc>
			Created with Pixso.
	</desc>
	<defs>
		<clipPath id="clip2_227">
			<rect id="Feather Icons/fi:user" rx="-0.416694" width="19.168324" height="19.168324" transform="translate(0.416694 0.416694)" fill="white" fill-opacity="0"/>
		</clipPath>
	</defs>
	<rect id="Feather Icons/fi:user" rx="-0.416694" width="19.168324" height="19.168324" transform="translate(0.416694 0.416694)" fill="#FFFFFF" fill-opacity="0"/>
	<g clip-path="url(#clip2_227)">
		<path id="Vector" d="M16.66 17.5L16.66 15.83C16.66 14.95 16.31 14.1 15.69 13.47C15.06 12.85 14.21 12.5 13.33 12.5L6.66 12.5C5.78 12.5 4.93 12.85 4.3 13.47C3.68 14.1 3.33 14.95 3.33 15.83L3.33 17.5" stroke="#3D3D3D" stroke-opacity="1.000000" stroke-width="1.666776" stroke-linejoin="round" stroke-linecap="round"/>
		<path id="Vector" d="M10 9.16C8.15 9.16 6.66 7.67 6.66 5.83C6.66 3.99 8.15 2.5 10 2.5C11.84 2.5 13.33 3.99 13.33 5.83C13.33 7.67 11.84 9.16 10 9.16Z" stroke="#3D3D3D" stroke-opacity="1.000000" stroke-width="1.666776" stroke-linejoin="round"/>
	</g>
</svg>
