<svg width="25.995117" height="25.995117" viewBox="0 0 25.9951 25.9951" fill="none" xmlns="http://www.w3.org/2000/svg" xmlns:xlink="http://www.w3.org/1999/xlink">
	<desc>
			Created with Pixso.
	</desc>
	<defs/>
	<path id="Ellipse 2" d="M12.99 25.97C20.15 25.97 25.97 20.15 25.97 12.99C25.97 5.83 20.15 0.02 12.99 0.02C5.83 0.02 0.02 5.83 0.02 12.99C0.02 20.15 5.83 25.97 12.99 25.97ZM19.95 7.16C21.28 8.73 22.08 10.77 22.08 12.99C22.08 15.06 21.38 17.13 19.95 18.83C18.63 20.41 16.76 21.55 14.57 21.94C12.54 22.3 10.37 21.97 8.45 20.86C6.66 19.83 5.22 18.19 4.46 16.1C3.75 14.16 3.7 11.97 4.46 9.89C5.16 7.95 6.53 6.24 8.45 5.13C10.24 4.09 12.38 3.66 14.57 4.05C16.6 4.41 18.52 5.45 19.95 7.16Z" fill="#D4F8D3" fill-opacity="1.000000" fill-rule="evenodd"/>
	<path id="Ellipse 1" d="M25.97 12.97C25.96 5.81 20.13 0 12.97 0.01C5.81 0.03 0 5.85 0.01 13.01C0.03 20.17 5.85 25.98 13.01 25.97C20.17 25.96 25.98 20.13 25.97 12.97ZM7.14 6.04C8.72 4.71 10.76 3.91 12.98 3.91C15.04 3.91 17.12 4.6 18.82 6.03C20.4 7.35 21.55 9.21 21.93 11.4C22.3 13.43 21.97 15.6 20.86 17.52C19.84 19.31 18.2 20.76 16.11 21.52C14.17 22.23 11.99 22.29 9.9 21.53C7.96 20.83 6.25 19.47 5.13 17.55C4.1 15.76 3.66 13.62 4.05 11.43C4.4 9.4 5.44 7.47 7.14 6.04Z" fill="#24DB24" fill-opacity="1.000000" fill-rule="evenodd"/>
</svg>
