<svg width="99.220703" height="30.000000" viewBox="0 0 99.2207 30" fill="none" xmlns="http://www.w3.org/2000/svg" xmlns:xlink="http://www.w3.org/1999/xlink">
	<desc>
			Created with Pixso.
	</desc>
	<defs>
		<clipPath id="clip4_409">
			<rect id="twemoji:star" rx="-0.240350" width="16.824476" height="16.824476" transform="translate(12.240350 6.587762)" fill="white" fill-opacity="0"/>
		</clipPath>
		<clipPath id="clip4_411">
			<rect id="twemoji:star" rx="-0.240350" width="16.824476" height="16.824476" transform="translate(31.545525 6.587762)" fill="white" fill-opacity="0"/>
		</clipPath>
		<clipPath id="clip4_413">
			<rect id="twemoji:star" rx="-0.240350" width="16.824476" height="16.824476" transform="translate(50.850700 6.587762)" fill="white" fill-opacity="0"/>
		</clipPath>
		<clipPath id="clip4_415">
			<rect id="twemoji:star" rx="-0.240350" width="16.824476" height="16.824476" transform="translate(70.155876 6.587762)" fill="white" fill-opacity="0"/>
		</clipPath>
		<clipPath id="clip4_408">
			<rect id="Stars=4" rx="5.500000" width="98.220703" height="29.000000" transform="translate(0.500000 0.500000)" fill="white" fill-opacity="0"/>
		</clipPath>
	</defs>
	<rect id="Stars=4" rx="5.500000" width="98.220703" height="29.000000" transform="translate(0.500000 0.500000)" fill="#FFF0BB" fill-opacity="1.000000"/>
	<g clip-path="url(#clip4_408)">
		<rect id="twemoji:star" rx="-0.240350" width="16.824476" height="16.824476" transform="translate(12.240350 6.587762)" fill="#FFFFFF" fill-opacity="0"/>
		<g clip-path="url(#clip4_409)">
			<path id="Vector" d="M25.11 22.99C24.92 22.99 24.72 22.93 24.56 22.81L20.65 20L16.74 22.81C16.58 22.93 16.38 22.99 16.18 22.99C15.98 22.99 15.79 22.92 15.63 22.81C15.46 22.69 15.34 22.52 15.28 22.33C15.22 22.14 15.22 21.94 15.28 21.75L16.74 17.04L12.86 14.31C12.7 14.19 12.58 14.03 12.52 13.84C12.46 13.65 12.46 13.44 12.52 13.25C12.58 13.06 12.7 12.9 12.86 12.78C13.03 12.66 13.22 12.6 13.42 12.6L18.22 12.59L19.75 8C19.81 7.81 19.93 7.65 20.09 7.53C20.25 7.41 20.45 7.35 20.65 7.35C20.85 7.35 21.04 7.41 21.2 7.53C21.37 7.65 21.49 7.81 21.55 8L23.05 12.59L27.88 12.6C28.08 12.6 28.27 12.66 28.43 12.78C28.59 12.9 28.71 13.06 28.77 13.25C28.83 13.44 28.84 13.65 28.77 13.84C28.71 14.03 28.59 14.19 28.43 14.31L24.56 17.04L26.02 21.75C26.08 21.94 26.08 22.14 26.01 22.33C25.95 22.52 25.83 22.69 25.67 22.81C25.51 22.92 25.31 22.99 25.11 22.99Z" fill="#FFAC33" fill-opacity="1.000000" fill-rule="nonzero"/>
		</g>
		<rect id="twemoji:star" rx="-0.240350" width="16.824476" height="16.824476" transform="translate(31.545525 6.587762)" fill="#FFFFFF" fill-opacity="0"/>
		<g clip-path="url(#clip4_411)">
			<path id="Vector" d="M44.42 22.99C44.22 22.99 44.03 22.93 43.86 22.81L39.95 20L36.04 22.81C35.88 22.93 35.69 22.99 35.49 22.99C35.29 22.99 35.09 22.92 34.93 22.81C34.77 22.69 34.65 22.52 34.59 22.33C34.52 22.14 34.52 21.94 34.58 21.75L36.04 17.04L32.17 14.31C32.01 14.19 31.89 14.03 31.83 13.84C31.77 13.65 31.77 13.44 31.83 13.25C31.89 13.06 32.01 12.9 32.17 12.78C32.33 12.66 32.52 12.6 32.72 12.6L37.52 12.59L39.05 8C39.12 7.81 39.24 7.65 39.4 7.53C39.56 7.41 39.75 7.35 39.95 7.35C40.15 7.35 40.35 7.41 40.51 7.53C40.67 7.65 40.79 7.81 40.85 8L42.36 12.59L47.18 12.6C47.38 12.6 47.57 12.66 47.74 12.78C47.9 12.9 48.02 13.06 48.08 13.25C48.14 13.44 48.14 13.65 48.08 13.84C48.02 14.03 47.9 14.19 47.74 14.31L43.86 17.04L45.32 21.75C45.38 21.94 45.38 22.14 45.32 22.33C45.26 22.52 45.14 22.69 44.97 22.81C44.81 22.92 44.62 22.99 44.42 22.99Z" fill="#FFAC33" fill-opacity="1.000000" fill-rule="nonzero"/>
		</g>
		<rect id="twemoji:star" rx="-0.240350" width="16.824476" height="16.824476" transform="translate(50.850700 6.587762)" fill="#FFFFFF" fill-opacity="0"/>
		<g clip-path="url(#clip4_413)">
			<path id="Vector" d="M63.72 22.99C63.53 22.99 63.33 22.93 63.17 22.81L59.26 20L55.35 22.81C55.19 22.93 54.99 22.99 54.79 22.99C54.59 22.99 54.4 22.92 54.24 22.81C54.07 22.69 53.95 22.52 53.89 22.33C53.83 22.14 53.83 21.94 53.89 21.75L55.35 17.04L51.47 14.31C51.31 14.19 51.19 14.03 51.13 13.84C51.07 13.65 51.07 13.44 51.13 13.25C51.19 13.06 51.31 12.9 51.48 12.78C51.64 12.66 51.83 12.6 52.03 12.6L56.83 12.59L58.36 8C58.42 7.81 58.54 7.65 58.7 7.53C58.86 7.41 59.06 7.35 59.26 7.35C59.46 7.35 59.65 7.41 59.81 7.53C59.98 7.65 60.1 7.81 60.16 8L61.66 12.59L66.49 12.6C66.69 12.6 66.88 12.66 67.04 12.78C67.2 12.9 67.32 13.06 67.38 13.25C67.45 13.44 67.45 13.65 67.38 13.84C67.32 14.03 67.2 14.19 67.04 14.31L63.17 17.04L64.63 21.75C64.69 21.94 64.69 22.14 64.62 22.33C64.56 22.52 64.44 22.69 64.28 22.81C64.12 22.92 63.92 22.99 63.72 22.99Z" fill="#FFAC33" fill-opacity="1.000000" fill-rule="nonzero"/>
		</g>
		<rect id="twemoji:star" rx="-0.240350" width="16.824476" height="16.824476" transform="translate(70.155876 6.587762)" fill="#FFFFFF" fill-opacity="0"/>
		<g clip-path="url(#clip4_415)">
			<path id="Vector" d="M83.03 22.99C82.83 22.99 82.64 22.93 82.47 22.81L78.56 20L74.65 22.81C74.49 22.93 74.3 22.99 74.1 22.99C73.9 22.99 73.7 22.92 73.54 22.81C73.38 22.69 73.26 22.52 73.2 22.33C73.14 22.14 73.13 21.94 73.19 21.75L74.65 17.04L70.78 14.31C70.62 14.19 70.5 14.03 70.44 13.84C70.38 13.65 70.38 13.44 70.44 13.25C70.5 13.06 70.62 12.9 70.78 12.78C70.94 12.66 71.14 12.6 71.33 12.6L76.13 12.59L77.66 8C77.73 7.81 77.85 7.65 78.01 7.53C78.17 7.41 78.36 7.35 78.56 7.35C78.76 7.35 78.96 7.41 79.12 7.53C79.28 7.65 79.4 7.81 79.46 8L80.97 12.59L85.79 12.6C85.99 12.6 86.18 12.66 86.35 12.78C86.51 12.9 86.63 13.06 86.69 13.25C86.75 13.44 86.75 13.65 86.69 13.84C86.63 14.03 86.51 14.19 86.35 14.31L82.47 17.04L83.93 21.75C83.99 21.94 83.99 22.14 83.93 22.33C83.87 22.52 83.75 22.69 83.59 22.81C83.42 22.92 83.23 22.99 83.03 22.99Z" fill="#FFAC33" fill-opacity="1.000000" fill-rule="nonzero"/>
		</g>
	</g>
</svg>
